<?xml version="1.0" encoding="iso-8859-1"?>
<!-- Generator: Adobe Illustrator 16.0.0, SVG Export Plug-In . SVG Version: 6.00 Build 0)  -->
<!DOCTYPE svg PUBLIC "-//W3C//DTD SVG 1.1//EN" "http://www.w3.org/Graphics/SVG/1.1/DTD/svg11.dtd">
<svg version="1.1" id="Capa_1" xmlns="http://www.w3.org/2000/svg" xmlns:xlink="http://www.w3.org/1999/xlink" x="0px" y="0px"
	 width="55.261px" height="55.262px" viewBox="0 0 55.261 55.262" style="enable-background:new 0 0 55.261 55.262;"
	 xml:space="preserve">
<g>
	<g>
		<path d="M27.683,46.793h15.438c2.823,0,5.11-2.289,5.11-5.111v-8.35c-0.212,0.015-0.423,0.033-0.638,0.033
			c-4.754,0-8.715-3.384-9.643-7.867h-1.134c-2.197,3.371-5.991,5.608-10.307,5.608c-1.372,0-2.689-0.235-3.923-0.653
			c-0.002,0.054-0.015,0.103-0.015,0.156v2.068L0,26.244v17.672l22.573-6.173v3.937C22.574,44.504,24.862,46.793,27.683,46.793z"/>
		<path d="M36.627,19.009c0-5.821-4.719-10.54-10.541-10.54c-5.822,0-10.542,4.719-10.542,10.54c0,5.822,4.719,10.542,10.542,10.542
			C31.909,29.551,36.627,24.831,36.627,19.009z M24.117,19.009c0-1.087,0.882-1.969,1.97-1.969c1.087,0,1.968,0.882,1.968,1.969
			c0,1.088-0.881,1.969-1.968,1.969C24.999,20.978,24.117,20.097,24.117,19.009z"/>
		<path d="M55.261,23.715c0-4.47-3.623-8.093-8.093-8.093s-8.092,3.624-8.092,8.093s3.623,8.093,8.092,8.093
			S55.261,28.185,55.261,23.715z M47.168,25.685c-1.087,0-1.97-0.881-1.97-1.969s0.883-1.969,1.97-1.969
			c1.088,0,1.969,0.881,1.969,1.969S48.256,25.685,47.168,25.685z"/>
	</g>
</g>
<g>
</g>
<g>
</g>
<g>
</g>
<g>
</g>
<g>
</g>
<g>
</g>
<g>
</g>
<g>
</g>
<g>
</g>
<g>
</g>
<g>
</g>
<g>
</g>
<g>
</g>
<g>
</g>
<g>
</g>
</svg>
